<svg width="119" height="79" viewBox="0 0 119 79" fill="none" xmlns="http://www.w3.org/2000/svg">
  <rect width="119" height="79" fill="white" />
  <g id="Group">
    <g id="sofa" style="--order: 1">
      <path id="Vector" d="M99.033 50.8095H83.8728C82.4123 50.8095 81.2283 51.9885 81.2283 53.4428V66.6619C81.2283 68.1163 82.4123 69.2953 83.8728 69.2953H99.033C100.493 69.2953 101.677 68.1163 101.677 66.6619V53.4428C101.677 51.9885 100.493 50.8095 99.033 50.8095Z" fill="#006BA4" />
      <path id="Vector_2" d="M86.0313 46.188H70.8711C69.4106 46.188 68.2267 47.367 68.2267 48.8213V66.6618C68.2267 68.1161 69.4106 69.2951 70.8711 69.2951H86.0313C87.4918 69.2951 88.6757 68.1161 88.6757 66.6618V48.8213C88.6757 47.367 87.4918 46.188 86.0313 46.188Z" fill="#006BA4" />
      <path id="Vector_3" d="M70.3172 52.8314H55.157C53.6965 52.8314 52.5126 54.0104 52.5126 55.4647V66.6619C52.5126 68.1163 53.6965 69.2953 55.157 69.2953H70.3172C71.7777 69.2953 72.9617 68.1163 72.9617 66.6619V55.4647C72.9617 54.0104 71.7777 52.8314 70.3172 52.8314Z" fill="#006BA4" />
    </g>
    <g id="SittingGirl" style="--order: 2">
      <path id="Vector_4" fill-rule="evenodd" clip-rule="evenodd" d="M53.4978 63.7753C53.4978 63.7753 54.4012 65.5923 53.6605 66.1649C52.9189 66.7375 50.9596 67.8108 50.9596 67.8108L56.1503 67.4859L54.9965 63.523L53.4978 63.7753Z" fill="#F8AE9D" />
      <path id="Vector_5" fill-rule="evenodd" clip-rule="evenodd" d="M55.6361 65.4194C55.4728 65.497 55.7413 66.2271 55.1667 66.1758C54.592 66.1247 54.2313 65.37 53.8076 65.419C53.3838 65.4679 53.1148 66.2279 52.308 66.7572C51.5013 67.2867 50.3053 67.918 50.3854 68.4502C50.4656 68.9825 52.3478 69.125 53.3013 68.9488C54.2549 68.7728 54.6999 68.3911 55.3186 68.4215C55.9373 68.4519 56.326 68.3765 56.52 67.9809C56.7138 67.5853 55.8246 65.3298 55.6361 65.4194V65.4194ZM61.3171 47.7601C59.7457 47.83 50.9993 49.7563 49.4102 50.0836C47.8212 50.4109 46.4778 52.1819 47.6895 54.2324C49.0505 56.5344 52.562 63.0717 53.4146 64.5455C53.8365 65.2749 55.9654 64.866 55.4654 63.6416C54.5332 61.3594 54.1003 55.6261 51.7236 53.5357C51.7236 53.5357 59.7163 54.9209 63.1689 53.3342C65.6781 52.1808 65.1104 47.5912 61.3171 47.7601V47.7601Z" fill="#1C4B63" />
      <path id="Vector_6" fill-rule="evenodd" clip-rule="evenodd" d="M50.3547 37.992C50.3547 37.992 50.3726 37.0618 49.9253 36.3963C49.4779 35.7309 49.4602 35.0241 49.1217 35.0473C48.7832 35.0703 49.1184 36.7133 49.1184 36.7133C49.1184 36.7133 48.6888 36.5499 48.3804 36.3432C48.0718 36.1366 47.1362 35.1176 46.9176 35.2983C46.5468 35.6058 47.144 37.3412 47.4691 37.6881C47.7954 38.0352 49.4056 39.0049 49.4056 39.0049L54.1476 43.762L54.8567 41.2367L50.3547 37.992V37.992Z" fill="#F8AE9D" />
      <path id="Vector_7" fill-rule="evenodd" clip-rule="evenodd" d="M59.8395 37.5721C59.1086 39.2605 57.7701 42.362 57.2184 43.2874C56.5268 44.4462 55.4364 44.9568 54.1597 44.097C53.8924 43.9171 53.1254 43.2879 53.1254 43.2879C53.2389 42.1865 53.6521 41.2659 54.3643 40.5258L54.8481 40.9244C54.8481 40.9244 56.22 37.4223 57.3236 35.3937C58.2793 33.6386 60.9523 35.0053 59.8395 37.5721ZM62.999 31.0184V32.5124L64.1008 31.6291C64.1008 31.6291 64.4394 30.1977 64.7148 29.1347C64.8875 28.4679 65.3082 26.2118 63.6143 26.3174C62.2267 23.8816 58.1853 25.3892 58.153 28.3651C58.1144 31.9444 58.146 33.338 58.146 33.338C60.4312 33.4686 61.7176 33.1396 62.999 31.0184V31.0184Z" fill="#1C4B63" />
      <path id="Vector_8" fill-rule="evenodd" clip-rule="evenodd" d="M64.1248 33.863C64.1248 33.863 63.0998 33.6233 63.0643 31.9512C63.0288 30.2789 63.0536 29.7081 63.0536 29.7081L60.7962 29.6675C60.7962 29.6675 60.7716 31.5311 60.7712 32.2053C60.7703 33.8443 59.5599 33.9787 59.5599 33.9787C59.5599 33.9787 59.7667 35.331 61.8123 35.4455C63.4094 35.5351 64.1248 33.863 64.1248 33.863Z" fill="#F8AE9D" />
      <path id="Vector_9" fill-rule="evenodd" clip-rule="evenodd" d="M63.58 28.8731C64.587 28.8342 64.4228 30.3023 63.3766 30.3003C63.3766 30.3003 62.7689 32.3858 60.6595 32.3858C58.9461 32.3858 58.8348 29.9551 58.8192 29.4702C58.8025 28.9532 58.8004 27.2547 58.8004 27.2547L63.6191 27.2525L63.58 28.8731Z" fill="#F8AE9D" />
      <path id="Vector_10" fill-rule="evenodd" clip-rule="evenodd" d="M63.6579 28.8633C63.2404 28.9319 63.2911 29.2071 63.1776 29.183C62.6014 29.0609 60.2687 29.222 59.9685 27.9447C59.5948 28.7426 59.5034 28.9387 58.6805 29.153V26.8146L63.8853 26.3174C63.8853 26.3174 63.8045 28.8391 63.6579 28.8633V28.8633Z" fill="#1C4B63" />
      <path id="Vector_11" fill-rule="evenodd" clip-rule="evenodd" d="M63.8955 33.6919C62.6093 34.4763 61.1225 34.764 59.7383 33.9121C57.4795 38.3473 56.9165 43.6391 57.4598 49.488C60.7537 50.7865 63.5219 50.531 65.8788 49.0469L63.8955 33.6919V33.6919Z" fill="#006BA4" />
      <path id="Vector_12" fill-rule="evenodd" clip-rule="evenodd" d="M47.8671 63.8482C47.8671 63.8482 47.8943 65.9868 46.1247 66.7865C44.3561 67.5859 43.096 67.5377 43.2564 68.1561C43.4168 68.7741 48.0202 68.7491 48.4501 68.2657C48.8166 67.8544 49.6133 64.025 49.8327 64.3178L47.8671 63.8482V63.8482Z" fill="#F8AE9D" />
      <path id="Vector_13" fill-rule="evenodd" clip-rule="evenodd" d="M49.1524 66.8685C48.8812 66.6741 48.6531 67.7948 47.9165 67.4831C47.1798 67.1716 47.7608 66.1416 47.2972 65.9516C46.8335 65.7616 45.9384 66.783 44.7493 67.0312C43.5603 67.2793 42.5949 67.4965 42.3205 67.9574C42.0842 68.3536 42.3205 68.4801 42.3205 68.4801C42.3205 68.4801 43.4651 69.0493 44.1765 69.1746C45.2097 69.3566 48.1959 69.4779 48.5232 69.1459C48.7241 68.9424 49.2881 66.9658 49.1524 66.8685V66.8685ZM66.2408 47.099C66.2408 47.099 68.5253 51.9035 65.3147 53.5534C62.2098 55.1488 52.9147 53.2618 52.9147 53.2618C52.9147 53.2618 53.0807 54.5935 52.9147 55.7811C52.4808 58.883 50.4178 64.0509 49.9812 64.7003C49.3776 65.5983 47.5388 64.9211 47.5041 64.1734C47.4695 63.4257 48.8904 53.876 49.1064 52.0549C49.3214 50.2339 50 49.9693 51.982 49.4715C52.4373 49.3571 57.8222 48.0245 58.3155 48.0633C62.5541 48.3971 66.2408 47.099 66.2408 47.099V47.099Z" fill="#1C4B63" />
      <path id="Vector_14" fill-rule="evenodd" clip-rule="evenodd" d="M63.8393 33.6955C61.7092 40.6439 60.4317 50.4951 67.0844 48.7813C63.5504 42.302 68.3545 39.3858 67.2657 36.0373C66.8934 34.8923 63.8671 33.6055 63.8393 33.6955V33.6955ZM59.8511 33.8633C59.0382 35.8936 58.6475 37.4865 58.2829 40.4666C57.9788 42.9485 58.131 48.0702 58.131 48.0702L57.1265 48.2669C57.1265 48.2669 56.4084 40.3541 56.6484 39.3353C57.0514 37.6257 57.3243 36.6268 57.8564 35.0639C58.1494 34.2061 59.8511 33.8633 59.8511 33.8633V33.8633Z" fill="#1C4B63" />
      <path id="Vector_15" fill-rule="evenodd" clip-rule="evenodd" d="M63.3922 41.5837C63.3922 41.5837 62.0806 40.276 61.6264 40.1242C61.1722 39.9726 58.6841 39.7902 58.701 40.1332C58.72 40.5005 60.3211 40.4793 60.4691 40.6601C60.6171 40.8408 60.823 42.2476 61.3826 42.3863C61.9412 42.525 63.099 42.9356 63.099 42.9356L68.2526 45.5872L67.7035 42.9358L63.3922 41.5837V41.5837Z" fill="#F8AE9D" />
      <path id="Vector_16" fill-rule="evenodd" clip-rule="evenodd" d="M67.3394 36.0468C68.9027 38.2438 70.2373 41.5903 70.7497 42.8952C71.2621 44.1998 70.7452 46.1679 68.4924 45.7814C68.2243 45.7355 67.7879 45.5664 67.7879 45.5664C66.9596 44.4358 66.8144 43.465 67.1235 42.6006L67.4148 42.7232C67.4148 42.7232 65.1758 38.7711 64.629 37.7117C63.7159 35.9424 65.9625 34.111 67.3394 36.0468Z" fill="#1C4B63" />
    </g>
    <g id="chatboxes" style="--order: 5">
      <path id="Vector_17" fill-rule="evenodd" clip-rule="evenodd" d="M67.1606 24.7374C67.1606 24.5279 67.2441 24.3269 67.3929 24.1788C67.5417 24.0306 67.7435 23.9474 67.9539 23.9474H74.3438C74.5542 23.9474 74.756 24.0306 74.9048 24.1788C75.0535 24.3269 75.1371 24.5279 75.1371 24.7374V29.223C75.1371 29.4325 75.0535 29.6335 74.9048 29.7816C74.756 29.9298 74.5542 30.013 74.3438 30.013H69.1739C69.0934 30.013 69.0147 30.0375 68.9485 30.0831L67.3679 31.1702C67.348 31.1839 67.3248 31.1919 67.3007 31.1933C67.2767 31.1948 67.2527 31.1896 67.2313 31.1785C67.21 31.1673 67.1921 31.1505 67.1796 31.13C67.1671 31.1094 67.1606 31.0859 67.1606 31.0619V24.7374V24.7374Z" fill="#006BA4" />
      <path id="Vector_18" d="M69.323 25.982C69.2529 25.982 69.1856 26.0098 69.1361 26.0592C69.0865 26.1086 69.0586 26.1755 69.0586 26.2454V26.2709C69.0586 26.3408 69.0865 26.4077 69.1361 26.4571C69.1856 26.5065 69.2529 26.5343 69.323 26.5343H72.9744C73.0445 26.5343 73.1118 26.5065 73.1614 26.4571C73.211 26.4077 73.2388 26.3408 73.2388 26.2709V26.2454C73.2388 26.1755 73.211 26.1086 73.1614 26.0592C73.1118 26.0098 73.0445 25.982 72.9744 25.982H69.323ZM69.323 27.4263C69.2529 27.4263 69.1856 27.454 69.1361 27.5034C69.0865 27.5528 69.0586 27.6198 69.0586 27.6896V27.715C69.0586 27.7849 69.0865 27.8519 69.1361 27.9012C69.1856 27.9506 69.2529 27.9784 69.323 27.9784H71.5242C71.5943 27.9784 71.6615 27.9506 71.7111 27.9012C71.7607 27.8519 71.7886 27.7849 71.7886 27.715V27.6896C71.7886 27.6198 71.7607 27.5528 71.7111 27.5034C71.6615 27.454 71.5943 27.4263 71.5242 27.4263H69.323Z" fill="white" stroke="white" stroke-width="2" />
      <path id="Vector_19" fill-rule="evenodd" clip-rule="evenodd" d="M97.0262 21.8567C97.0262 21.6471 97.1098 21.4462 97.2586 21.2981C97.4074 21.1499 97.6092 21.0667 97.8196 21.0667H104.21C104.42 21.0667 104.622 21.1499 104.771 21.2981C104.919 21.4462 105.003 21.6471 105.003 21.8567V26.3423C105.003 26.5518 104.919 26.7527 104.771 26.9009C104.622 27.0491 104.42 27.1323 104.21 27.1323H99.0397C98.9592 27.1323 98.8805 27.1566 98.8143 27.2023L97.2337 28.2894C97.2139 28.303 97.1906 28.311 97.1666 28.3125C97.1425 28.314 97.1185 28.3089 97.0971 28.2977C97.0757 28.2866 97.0578 28.2698 97.0453 28.2493C97.0329 28.2287 97.0263 28.2052 97.0262 28.1811V21.8567Z" fill="#006BA4" />
      <path id="Vector_20" d="M99.1889 23.1013C99.1187 23.1013 99.0515 23.129 99.0019 23.1784C98.9523 23.2278 98.9244 23.2948 98.9244 23.3646V23.3902C98.9244 23.46 98.9523 23.527 99.0019 23.5764C99.0515 23.6258 99.1187 23.6535 99.1889 23.6535H102.84C102.91 23.6535 102.978 23.6258 103.027 23.5764C103.077 23.527 103.105 23.46 103.105 23.3902V23.3646C103.105 23.2948 103.077 23.2278 103.027 23.1784C102.978 23.129 102.91 23.1013 102.84 23.1013H99.1889ZM99.1889 24.5454C99.1187 24.5454 99.0515 24.5732 99.0019 24.6226C98.9523 24.6719 98.9244 24.7389 98.9244 24.8088V24.8343C98.9244 24.9041 98.9523 24.9711 99.0019 25.0205C99.0515 25.0699 99.1187 25.0976 99.1889 25.0976H101.39C101.46 25.0976 101.527 25.0699 101.577 25.0205C101.626 24.9711 101.654 24.9041 101.654 24.8343V24.8088C101.654 24.7389 101.626 24.6719 101.577 24.6226C101.527 24.5732 101.46 24.5454 101.39 24.5454H99.1889Z" fill="white" stroke="white" stroke-width="2" />
      <path id="Vector_21" fill-rule="evenodd" clip-rule="evenodd" d="M19.301 12.4617C19.301 12.2522 19.2174 12.0513 19.0686 11.9031C18.9199 11.755 18.7181 11.6717 18.5077 11.6717H12.1178C11.9074 11.6717 11.7056 11.755 11.5568 11.9031C11.408 12.0513 11.3244 12.2522 11.3244 12.4617V16.9473C11.3244 17.1569 11.408 17.3578 11.5568 17.506C11.7056 17.6541 11.9074 17.7373 12.1178 17.7373H17.2875C17.368 17.7373 17.4467 17.7618 17.513 17.8074L19.0935 18.8946C19.1134 18.9082 19.1366 18.9162 19.1607 18.9177C19.1848 18.9192 19.2088 18.914 19.2302 18.9029C19.2516 18.8917 19.2695 18.8749 19.2819 18.8544C19.2944 18.8338 19.301 18.8102 19.301 18.7862V12.4617V12.4617Z" fill="#006BA4" />
      <path id="Vector_22" d="M17.1382 13.7064C17.2084 13.7064 17.2756 13.7341 17.3252 13.7835C17.3748 13.8329 17.4027 13.8999 17.4027 13.9697V13.9953C17.4027 14.0651 17.3748 14.1321 17.3252 14.1815C17.2756 14.2308 17.2084 14.2586 17.1382 14.2586H13.4869C13.4168 14.2586 13.3495 14.2308 13.2999 14.1815C13.2503 14.1321 13.2225 14.0651 13.2225 13.9953V13.9697C13.2225 13.8999 13.2503 13.8329 13.2999 13.7835C13.3495 13.7341 13.4168 13.7064 13.4869 13.7064H17.1382ZM17.1382 15.1506C17.2084 15.1506 17.2756 15.1784 17.3252 15.2278C17.3748 15.2771 17.4027 15.3441 17.4027 15.414V15.4394C17.4027 15.5092 17.3748 15.5762 17.3252 15.6256C17.2756 15.675 17.2084 15.7027 17.1382 15.7027H14.9371C14.867 15.7027 14.7997 15.675 14.7501 15.6256C14.7005 15.5762 14.6727 15.5092 14.6727 15.4394V15.414C14.6727 15.3441 14.7005 15.2771 14.7501 15.2278C14.7997 15.1784 14.867 15.1506 14.9371 15.1506H17.1382Z" fill="white" stroke="white" stroke-width="2" />
      <path id="Vector_23" fill-rule="evenodd" clip-rule="evenodd" d="M42.2155 24.0153C42.2155 23.8058 42.2991 23.6049 42.4479 23.4567C42.5967 23.3086 42.7984 23.2253 43.0088 23.2253H49.3987C49.6092 23.2253 49.8109 23.3086 49.9597 23.4567C50.1085 23.6049 50.1921 23.8058 50.1921 24.0153V28.501C50.1921 28.7105 50.1085 28.9114 49.9597 29.0596C49.8109 29.2077 49.6092 29.291 49.3987 29.291H44.2289C44.1483 29.291 44.0698 29.3153 44.0034 29.3609L42.4228 30.448C42.403 30.4617 42.3798 30.4697 42.3557 30.4711C42.3317 30.4726 42.3077 30.4674 42.2863 30.4563C42.265 30.4452 42.2471 30.4284 42.2346 30.4079C42.2221 30.3874 42.2155 30.3638 42.2155 30.3398V24.0153V24.0153Z" fill="#006BA4" />
      <path id="Vector_24" d="M44.3782 25.26C44.308 25.26 44.2408 25.2877 44.1912 25.3371C44.1416 25.3865 44.1137 25.4535 44.1137 25.5233V25.5487C44.1137 25.6186 44.1416 25.6855 44.1912 25.7349C44.2408 25.7843 44.308 25.8121 44.3782 25.8121H48.0295C48.0996 25.8121 48.1669 25.7843 48.2165 25.7349C48.2661 25.6855 48.2939 25.6186 48.2939 25.5487V25.5233C48.2939 25.4535 48.2661 25.3865 48.2165 25.3371C48.1669 25.2877 48.0996 25.26 48.0295 25.26H44.3782ZM44.3782 26.7041C44.308 26.7041 44.2408 26.7318 44.1912 26.7812C44.1416 26.8306 44.1137 26.8976 44.1137 26.9674V26.993C44.1137 27.0628 44.1416 27.1298 44.1912 27.1792C44.2408 27.2286 44.308 27.2563 44.3782 27.2563H46.5793C46.6494 27.2563 46.7167 27.2286 46.7662 27.1792C46.8158 27.1298 46.8437 27.0628 46.8437 26.993V26.9674C46.8437 26.8976 46.8158 26.8306 46.7662 26.7812C46.7167 26.7318 46.6494 26.7041 46.5793 26.7041H44.3782Z" fill="white" stroke="white" stroke-width="2" />
    </g>
    <g id="guy" style="--order: 4">
      <path id="Vector_25" d="M28.1577 16.464C28.0691 16.8163 28.1866 17.1828 28.3802 17.4905C28.517 17.708 28.7084 17.4678 28.9872 17.4294C29.4188 17.3692 29.6921 16.9143 29.7854 15.8062C29.8287 14.9967 29.8083 14.5929 29.763 14.5223C29.6018 14.2694 29.1873 14.1847 28.8603 14.2091" fill="#1C4B63" />
      <path id="Vector_26" fill-rule="evenodd" clip-rule="evenodd" d="M28.9411 64.629C28.9411 64.629 28.9149 66.2931 29.9463 66.8843C30.9778 67.4755 32.5759 68.5739 32.5759 68.5739L26.4967 68.7779L26.67 64.614L28.9411 64.629Z" fill="#F8AE9D" />
      <path id="Vector_27" fill-rule="evenodd" clip-rule="evenodd" d="M26.2846 66.4628L26.1857 69.1625H27.5977L27.6945 68.8148C27.6945 68.8148 28.2261 68.7932 28.5333 68.9434C28.858 69.1023 28.9017 69.1794 28.9017 69.1794L33.3806 69.1887C33.3806 69.1887 33.6015 68.3162 32.2362 67.685C30.871 67.0537 29.8768 66.1578 29.688 66.066C29.4978 65.9737 29.114 65.9214 28.8437 66.1385C28.5736 66.3555 28.3598 66.926 27.7475 66.9439C26.9593 66.967 26.5064 66.0062 26.2846 66.4628V66.4628ZM24.5388 37.4689C24.5388 37.4689 26.1981 51.4888 26.2497 52.4634C26.3014 53.438 25.7168 55.1199 25.7282 56.9429C25.7396 58.766 25.9416 65.1911 25.9416 65.1911L29.6019 65.2504C29.6019 65.2504 31.1402 53.6399 31.1567 51.8988C31.1732 50.1578 31.3143 37.6365 31.3143 37.6365L24.5388 37.4689V37.4689Z" fill="#1C4B63" />
      <path id="Vector_28" fill-rule="evenodd" clip-rule="evenodd" d="M20.0617 64.3365L19.3483 68.6502L21.978 68.637L22.0611 64.2689L20.0617 64.3365V64.3365Z" fill="#F8AE9D" />
      <path id="Vector_29" fill-rule="evenodd" clip-rule="evenodd" d="M19.6178 66.2371C19.5388 66.2543 19.4678 66.2972 19.416 66.359C19.3642 66.4209 19.3346 66.4982 19.332 66.5787L19.3052 67.3851C18.9281 67.8029 18.7527 69.0203 18.7384 69.1238C18.7376 69.1288 18.7374 69.1338 18.7376 69.1388C18.7724 69.7318 22.6851 69.7205 22.9857 69.1563C22.9937 69.14 22.996 69.1214 22.9923 69.1035C22.96 68.9043 22.7461 67.6755 22.3247 67.3463L22.3216 66.5489C22.3214 66.4696 22.2949 66.3926 22.2464 66.3297C22.1978 66.2668 22.1298 66.2216 22.0528 66.2011L21.5013 66.0533C21.117 65.4936 20.5931 65.5134 20.1442 66.1233L19.6178 66.2371V66.2371ZM21.3527 37.601C21.3527 37.601 20.181 47.1663 20.1968 48.998C20.2127 50.8299 20.5575 51.6344 20.0668 52.9484C19.5762 54.2625 19.1578 64.7512 19.1578 64.7512L22.786 65.052C22.786 65.052 25.1039 53.8286 25.3559 52.2726C25.6079 50.7164 28.723 37.4689 28.723 37.4689L21.3527 37.601V37.601Z" fill="#1C4B63" />
      <path id="Vector_30" fill-rule="evenodd" clip-rule="evenodd" d="M39.4447 20.4024C39.4447 20.4024 39.1417 18.7214 39.2507 18.3809C39.3437 18.0868 40.2231 17.6624 40.2231 17.6624C40.2231 17.6624 41.7525 15.2566 42.0873 15.5015C42.3595 15.7002 41.2908 17.4739 41.2908 17.4739C41.2908 17.4739 42.2654 18.4921 42.2517 18.9472C42.2381 19.4024 40.661 20.8273 40.661 20.8273L39.4447 20.4024V20.4024ZM23.7254 20.7974C23.7254 20.7974 24.7327 20.562 24.7677 18.9184C24.8026 17.2748 24.7781 16.7139 24.7781 16.7139L27.1661 16.674C27.1661 16.674 27.1902 18.5056 27.1907 19.1682C27.1916 20.6106 28.2673 21.0003 28.2673 21.0003C28.2673 21.0003 28.1779 22.5774 26.1674 22.69C24.5977 22.7781 23.7254 20.7974 23.7254 20.7974V20.7974Z" fill="#F8AE9D" />
      <path id="Vector_31" fill-rule="evenodd" clip-rule="evenodd" d="M24.5588 15.8831C23.569 15.8449 23.7305 17.2878 24.7588 17.2859C24.7588 17.2859 25.8637 19.4984 27.5985 19.504C28.4341 19.5068 28.707 18.7657 28.9575 18.2453C29.208 17.725 29.392 16.9466 29.4072 16.4701C29.4236 15.9618 29.4257 14.2926 29.4257 14.2926L24.5204 14.2903L24.5588 15.8831Z" fill="#F8AE9D" />
      <path id="Vector_32" fill-rule="evenodd" clip-rule="evenodd" d="M28.3049 20.9025C28.3049 20.9025 30.8781 21.7024 31.4977 22.6577C33.4947 24.4048 35.9922 26.8038 35.9922 26.8038C35.9922 26.8038 38.371 20.8584 39.1487 20.1805C39.6808 19.7167 40.7411 20.2902 40.9385 20.8796C41.1924 21.6366 39.563 26.0768 38.7935 28.1739C38.6444 28.5802 38.5276 28.8985 38.463 29.085C37.9938 30.4407 36.8522 31.2182 35.4628 30.3565C34.9028 30.0093 33.2363 28.8713 31.8145 27.8396C31.7922 28.9235 31.7547 30.0656 31.7192 31.1502C31.6327 33.7855 31.5575 36.0821 31.7383 36.3806C32.6352 37.8596 31.4428 38.8748 27.4951 39.248C23.5473 39.621 20.045 39.3155 20.6805 37.3417C20.813 36.9303 20.8114 36.0451 20.7453 34.895C20.3585 34.8744 19.972 34.849 19.5858 34.8189C17.9382 34.6896 16.7198 33.9846 16.5498 32.1537C16.4307 30.8716 18.8837 24.8526 19.8034 22.8734C20.0186 22.4103 20.3514 22.122 20.7283 21.9782C20.816 21.8808 20.9149 21.8123 21.0258 21.7758C21.7015 21.5541 24.1239 20.5407 24.1239 20.5407L27.0056 22.4182L28.3049 20.9025V20.9025ZM20.4783 31.4976L20.4718 31.5143L20.4799 31.5153L20.4783 31.4976V31.4976Z" fill="#006BA4" />
      <path id="Vector_33" fill-rule="evenodd" clip-rule="evenodd" d="M26.8723 33.0862C26.8723 33.0862 27.7512 32.9102 28.111 32.629C28.4706 32.3479 29.56 32.149 29.56 32.149L29.2116 32.8799C29.2116 32.8799 31.8814 32.6303 31.9446 32.8926C32.0079 33.1548 31.2356 33.44 31.2356 33.44C31.2356 33.44 30.8548 34.1484 30.4862 34.5589C30.1374 34.9475 28.4044 34.9013 27.7968 34.6587C27.2719 34.4493 26.7011 34.5541 26.7011 34.5541L26.8723 33.0862V33.0862Z" fill="#F8AE9D" />
      <path id="Vector_34" d="M24.8278 14.3584C24.9724 14.5469 25.2275 14.5884 25.4374 14.6257C25.7199 14.6757 25.8596 14.7801 26.0061 15.0603C26.099 15.2392 26.1918 15.4351 26.3578 15.5321C26.4932 15.6114 26.489 15.4108 26.5091 15.2557C26.511 15.2412 26.5139 15.2268 26.5176 15.2126C26.55 15.0887 26.6821 15.1094 26.7204 15.2317C26.7556 15.3425 26.8308 15.4362 26.9265 15.4885C26.9421 15.4969 26.9588 15.5044 26.9753 15.5012C26.9978 15.4981 27.0154 15.4768 27.0301 15.4575C27.0606 15.4176 27.0909 15.3671 27.1221 15.3136C27.2255 15.1365 27.4226 15.1987 27.5382 15.3681C27.6105 15.4735 27.6965 15.5822 27.8147 15.6067C27.8528 15.6151 27.9006 15.6088 27.9182 15.5716C27.9407 15.5257 27.9055 15.4799 27.9115 15.433C27.9162 15.3893 27.9349 15.3702 27.9554 15.333C28.0353 15.1892 28.2209 15.1839 28.3339 15.3037C28.4125 15.3871 28.4945 15.4672 28.5797 15.5438C28.6158 15.5758 28.6686 15.6078 28.7048 15.5758C28.7244 15.5588 28.7293 15.5299 28.7331 15.5023C28.7536 15.3671 28.7731 15.2317 28.7936 15.0965C28.8054 15.0208 28.8455 14.9218 28.9138 14.941C28.947 14.9506 28.9666 14.9856 28.9852 15.0176C29.0077 15.0582 29.4093 15.5193 29.4171 15.4841C29.4796 15.2221 29.6076 14.9835 29.6701 14.7215C30.0746 13.0355 28.2797 11.6796 26.9089 11.6721C26.604 11.67 26.3256 11.675 26.0295 11.7464C25.7139 11.823 25.3809 11.9448 25.0946 12.1164C24.693 12.356 24.3891 12.7915 24.4673 13.3114" fill="#1C4B63" />
      <path id="Vector_35" d="M25.9425 13.8134C26.1358 14.0336 26.1869 14.3432 26.205 14.6358C26.2314 15.0772 26.1955 15.5355 25.9926 15.9273C25.9348 16.0387 25.8923 16.5907 25.8032 16.5601C25.7747 16.5505 25.7795 16.1226 25.7046 15.892C25.5891 15.5346 25.0565 15.3983 24.8168 15.6242C24.434 15.9835 24.6585 16.42 24.7854 16.6916C24.8613 16.8556 24.9817 17.0395 25.0025 17.2129C25.0281 17.435 25.0356 18.2441 24.8916 18.4329C24.7713 18.5911 24.6434 17.8267 24.5343 17.6761C23.7281 16.5543 22.9548 13.6981 24.3317 13.0786C24.5411 12.9842 25.1873 12.9356 25.3833 13.0557" fill="#1C4B63" />
    </g>
    <g id="laptopGirl" style="--order: 3">
      <path id="Vector_36" d="M105.684 53.0785C106.724 52.7287 107.626 51.9836 108.152 51.0277C108.301 50.7641 108.422 50.4612 108.382 50.1616C108.372 50.1005 108.356 50.0283 108.301 49.9998C108.252 49.9713 108.184 49.9868 108.129 50.0026C106.392 50.4694 104.555 51.2559 102.732 51.1728C102.649 51.1716 102.565 51.1647 102.493 51.1969C102.403 51.2343 102.346 51.3166 102.306 51.4045C102.168 51.6905 102.048 52.2315 102.094 52.5534C102.149 52.9365 102.521 52.9919 102.848 53.0744C103.779 53.31 104.756 53.3914 105.684 53.0785V53.0785Z" fill="#F8AE9D" />
      <path id="Vector_37" d="M105.845 50.9318C105.985 50.8731 106.13 50.8144 106.281 50.8111C106.431 50.8078 106.596 50.8878 106.644 51.0325C106.676 51.1327 106.647 51.2376 106.606 51.3312C106.497 51.5732 106.305 51.7696 106.102 51.9438C105.325 52.5967 104.328 52.9916 103.31 53.0536C102.859 53.0801 102.386 53.0397 101.989 52.8287C102.188 52.5881 102.148 52.244 102.17 51.9397C102.233 51.049 102.996 51.3873 103.607 51.3854C104.375 51.3694 105.14 51.2203 105.845 50.9318V50.9318Z" fill="#F8AE9D" />
      <path id="Vector_38" d="M82.5728 44.3431L82.5379 44.4422C82.2935 45.1476 82.1045 45.8758 82.0263 46.6224C81.883 47.9938 82.1534 49.5987 83.1895 50.5948C84.5708 51.9227 86.7871 52.128 88.5885 51.8119C89.3259 51.6835 90.0201 51.3763 90.61 50.9175C91.1971 51.447 91.8279 52.027 92.353 52.6165C93.4075 52.2492 94.4112 51.7508 95.3403 51.133C97.5387 52.1355 99.7811 52.812 102.149 53.302C102.419 52.6316 102.609 51.9317 102.714 51.2169C102.733 51.1009 101.257 50.1092 101.087 49.9682C100.576 49.5394 99.5123 48.5596 99.5123 48.5596C99.5123 48.5596 100.853 47.4223 101.44 46.8883C102.061 46.3333 102.656 45.7509 103.224 45.1428C103.694 44.6404 104.152 44.11 104.44 43.483C104.728 42.8615 104.833 42.1264 104.593 41.4803C103.834 39.4692 100.769 40.1761 99.3458 40.8692C98.1691 41.4441 97.1384 42.2815 96.1465 43.1304C95.7465 43.4678 95.3518 43.8163 94.9627 44.1594C94.656 43.8446 94.3174 43.4351 94.0277 43.104C93.7161 42.7448 93.3597 42.4071 92.9291 42.1956C92.4765 41.9672 92.0588 41.9997 91.5759 41.9314C91.3595 41.9004 91.1491 41.8363 90.9382 41.8C90.3059 41.6851 89.6366 41.8079 89.081 42.1319C88.5535 42.4396 88.1252 42.8042 87.506 42.9223C86.8031 43.0557 85.9866 42.9768 85.2816 42.883C84.6489 42.7959 84.0058 42.6533 83.3754 42.7767C83.1132 42.8281 83.0131 43.1921 82.9265 43.4013C82.8106 43.7041 82.689 44.018 82.5728 44.3431ZM88.1582 21.1473C88.1582 21.1473 86.4564 20.8777 85.9993 23.8696C85.4916 27.1956 84.1355 26.6484 81.982 29.3492C80.7235 30.9273 82.048 33.7143 84.7394 33.659C87.4309 33.6052 89.8615 32.8303 91.4097 33.1617C92.9579 33.4932 93.0429 29.5446 91.5154 28.3264C89.9878 27.1081 93.2447 23.6096 91.2602 22.0515C89.2755 20.4937 88.1582 21.1473 88.1582 21.1473Z" fill="#1C4B63" />
      <path id="Vector_39" d="M77.9852 34.34C77.83 34.0224 77.8394 33.6533 77.8954 33.309C78.138 31.8312 79.1781 30.5962 80.3702 29.6912C81.5663 28.7839 82.9353 28.1361 84.1937 27.3231C84.5203 27.1114 84.8477 26.8833 85.2226 26.7688C85.5976 26.6543 86.0334 26.6667 86.343 26.9074C86.5616 27.0765 86.6879 27.3377 86.7614 27.5989C86.9226 28.171 86.8609 28.7768 86.7625 29.3572C86.6397 30.0891 86.4593 30.8136 86.1631 31.4862C85.9257 32.029 85.5392 32.5874 84.9583 32.6938C84.7903 33.3422 84.4442 33.9501 83.9589 34.4152C83.4037 34.9484 82.6998 35.2971 81.9693 35.5405C81.2963 35.7654 80.5602 35.9122 79.8832 35.7023C79.4814 35.5802 79.1275 35.3449 78.7813 35.105C78.4726 34.9006 78.1521 34.6769 77.9852 34.34V34.34ZM84.0678 33.3545L84.4651 32.7264C84.3805 32.7351 84.3005 32.7514 84.2197 32.7841C84.0017 32.8781 83.8703 33.2203 84.0678 33.3545V33.3545Z" fill="#1C4B63" />
      <path id="Vector_40" d="M91.4302 23.7783C91.4507 23.8895 91.4545 24.0057 91.447 24.1386C91.4019 24.9143 91.2345 25.6782 90.9508 26.4021C90.7773 26.8314 90.5651 27.2547 90.2648 27.6102C90.1403 27.7578 89.9992 27.8942 89.8147 27.9468C89.6249 27.9993 89.3855 28.0068 89.1971 27.9597C89.0309 28.644 89.1003 29.9355 89.6936 30.4208C89.8749 30.5676 90.0904 30.6595 90.3061 30.7403C90.7264 30.9018 91.1639 31.0246 91.6018 31.1199C92.1008 31.2271 92.6447 31.3074 92.9952 31.6727C93.039 31.7177 93.0825 31.7793 93.0649 31.8399C93.0532 31.8785 93.0249 31.9059 92.9912 31.9275C92.7153 32.1504 92.3741 32.2726 92.033 32.3893C91.4348 32.5908 90.8204 32.7587 90.1958 32.8711C89.5431 32.9886 88.8693 33.0449 88.2085 32.9739C87.6976 32.9164 87.1934 32.7868 86.7297 32.5583C86.2438 32.3184 85.7462 32.1225 85.2435 31.8934C84.8183 31.6986 84.3989 31.4762 83.9385 31.3972C84.1561 30.9851 84.6102 30.7538 85.0624 30.6444C85.5145 30.5405 85.9874 30.531 86.4449 30.4437C86.5955 30.4128 86.7462 30.3763 86.8756 30.2841C87.2299 30.0291 87.1329 29.4627 87.1386 29.0916L87.1564 27.9177C87.1038 27.3574 86.8717 26.8887 86.6682 26.376C86.3576 25.5903 86.2934 24.6976 86.5671 23.893C86.8407 23.0941 87.4632 22.4001 88.2628 22.1186C89.0625 21.8372 90.0223 21.9957 90.6364 22.581C91.0256 22.9579 91.3431 23.2951 91.4302 23.7783V23.7783Z" fill="#F8AE9D" />
      <path id="Vector_41" d="M88.971 21.2821C89.768 21.1935 90.4942 21.5821 91.0327 22.1845C91.4857 22.6896 91.752 23.3564 91.7387 24.0261C91.7367 24.1217 91.7259 24.226 91.6716 24.312C91.5278 24.5179 91.2147 24.4421 90.9805 24.3504C90.5989 24.2036 90.3149 23.9891 89.969 23.8081C89.623 23.6272 89.2031 23.6537 88.8934 23.4039C88.6012 23.1631 87.5976 22.6558 87.5705 22.2636C87.5364 21.7844 88.4182 21.3928 88.7868 21.3131C88.8396 21.2968 88.9009 21.2893 88.971 21.2821V21.2821Z" fill="#1C4B63" />
      <path id="Vector_42" d="M86.6747 22.367C86.0008 22.7998 85.6845 23.5581 85.6495 24.3639C85.6188 25.0404 85.8354 25.7246 86.2708 26.2354C86.3331 26.3083 86.4075 26.3822 86.504 26.4148C86.7464 26.4838 86.9409 26.2281 87.0641 26.0097C87.2667 25.6558 87.3508 25.3108 87.5041 24.9529C87.6574 24.5951 87.9997 24.3512 88.0812 23.9628C88.1549 23.5923 88.611 22.5677 88.3832 22.2467C88.1054 21.8536 87.1736 22.1051 86.8372 22.2752C86.7861 22.2958 86.7337 22.3286 86.6747 22.367V22.367Z" fill="#1C4B63" />
      <path id="Vector_43" d="M92.6695 31.5016C92.776 31.4535 92.9034 31.4886 92.9742 31.5838C93.7694 32.6926 94.0764 34.0819 94.3452 35.4208C94.6501 36.943 94.9217 38.4704 95.182 39.9974C95.1975 40.0752 95.2074 40.1585 95.1729 40.2299C95.1384 40.3014 95.06 40.3391 94.9873 40.3712C94.5278 40.5914 94.0628 40.8059 93.6033 41.026C93.1076 39.9027 92.7502 38.7237 92.5389 37.5149C92.2439 38.2581 91.7112 38.9037 91.0317 39.3254C91.538 40.0476 92.1611 41.4916 92.769 42.1267C92.8619 42.2277 93.4372 42.0704 93.5659 42.028C93.6457 42.2563 93.2713 42.0124 93.2733 42.2451C92.9276 42.2953 92.4857 42.0892 92.1305 42.045C91.702 41.9952 91.2693 41.9923 90.8402 42.0365C90.127 42.1144 89.4339 42.3366 88.8003 42.6704C88.4853 42.8373 88.1831 43.0271 87.8961 43.2383C87.6485 43.4229 87.0357 43.8567 87.0357 43.8567C86.9907 43.8892 86.78 43.8417 86.7301 43.83C86.5847 43.8053 86.4384 43.7865 86.2915 43.7735C85.9229 43.7449 85.556 43.6968 85.1925 43.6294C84.4658 43.4966 83.7514 43.2919 83.066 43.0101C83 42.9593 83.2355 42.4754 83.248 42.3815C83.2356 42.4699 81.8856 42.3608 81.7525 42.3367C81.2202 42.2289 80.6815 42.171 80.1493 42.0576C80.3876 39.9233 81.0421 37.8617 81.6851 35.8164C81.9365 35.0116 82.1936 34.2067 82.5499 33.4478C82.9294 32.6394 83.4193 31.8824 84.0081 31.21C84.025 31.1937 84.053 31.183 84.0751 31.1888C84.3577 31.2596 86.0808 31.7011 86.9381 32.0187C87.375 32.1859 87.8176 32.3367 88.2659 32.4874C88.4431 32.5455 88.6256 32.6037 88.8093 32.6009C88.9317 32.5972 89.0544 32.5713 89.1717 32.5454C90.3661 32.281 91.5607 31.9945 92.6695 31.5016V31.5016Z" fill="#006BA4" />
      <path id="Vector_44" d="M84.8956 35.7542C84.8466 36.0581 84.7806 36.3673 84.7148 36.6709C84.5546 37.3599 84.3492 38.0378 84.0998 38.7C83.9725 39.0303 83.8396 39.3552 83.6899 39.6796C83.6156 39.8402 83.5391 39.9997 83.4602 40.1581C83.42 40.235 83.3799 40.3175 83.3398 40.3944C83.3054 40.4604 83.2655 40.5207 83.2312 40.5811C83.4706 40.5736 84.6516 40.6414 84.8959 40.6618" stroke="white" stroke-width="1.376" stroke-miterlimit="10" stroke-linecap="round" />
      <path id="Vector_45" d="M84.9341 40.9004C84.9094 41.056 84.8792 41.2107 84.8437 41.3643L84.7365 41.828C84.701 41.9603 84.6206 42.1253 84.6185 42.2637C84.6189 42.2361 85.5658 42.1563 85.6549 42.1465C86.6409 42.0507 87.6319 41.9937 88.6173 41.931C89.2576 41.8908 89.8859 41.9058 90.5254 41.91C90.7145 41.9128 90.9373 41.8941 91.0398 41.7405C91.1252 41.6089 91.0555 41.4417 91.1241 41.3208C91.1684 41.3326 91.6837 41.4622 91.6783 41.4511C91.6988 41.5677 91.7395 41.8121 91.861 41.8692C91.9053 41.8865 91.9497 41.8928 91.9942 41.8935C92.0609 41.8944 92.1278 41.8844 92.1947 41.8744C92.205 41.8743 92.2149 41.8705 92.2226 41.8637C92.234 41.8528 92.2232 41.8359 92.2122 41.8192C92.0606 41.596 91.9812 41.3319 91.9846 41.0625C91.8249 40.9548 91.6656 40.8305 91.5285 40.6955C91.419 40.5831 91.3378 40.4379 91.2168 40.3419C91.0905 40.2347 90.9672 40.2994 90.8276 40.336C90.666 40.372 90.5058 40.4139 90.3473 40.4616C90.0399 40.5566 89.7322 40.6738 89.4735 40.8638C89.3836 40.929 89.2989 40.9997 89.1929 41.0313C89.0923 41.063 88.9811 41.0613 88.8753 41.0597C88.2248 41.0443 87.5745 41.0123 86.9303 40.9416C86.2696 40.8708 85.8188 40.8805 84.9531 40.7511C84.9531 40.7566 84.9523 40.8065 84.9341 40.9004V40.9004Z" fill="#F8AE9D" />
      <path id="Vector_46" d="M92.0983 35.6927C92.2538 36.3623 92.3661 37.0382 92.442 37.728" stroke="white" stroke-width="1.376" stroke-miterlimit="10" stroke-linecap="round" />
      <path id="Vector_47" d="M105.215 34.5883L103.306 43.0671L88.8087 42.8478C88.8162 42.3494 89.2283 41.9457 89.7345 41.9534L93.199 42.0058L94.9254 34.2056C94.952 34.0829 95.0204 33.9732 95.1189 33.895C95.2174 33.8167 95.3399 33.7747 95.4659 33.7761L104.686 33.9156C105.036 33.9264 105.293 34.246 105.215 34.5883V34.5883Z" fill="#1C4B63" />
      <path id="Vector_48" d="M86.2768 55.3051C86.3439 54.9184 86.5335 54.5225 86.7112 54.1762C87.4449 52.7583 88.7561 51.759 90.1683 51.0714C90.314 51.0016 90.4595 50.9318 90.6105 50.8786C90.5979 50.8961 90.5865 50.9145 90.5764 50.9335L90.5763 50.9391H90.5708C90.5875 50.9281 90.5989 50.9173 90.6157 50.9064C91.1864 51.4191 91.7953 51.9823 92.315 52.5495C91.9715 52.8268 91.473 53.0519 91.2254 53.2365C90.6404 53.6652 90.0772 54.122 89.4704 54.5226C88.6555 55.0697 87.7873 55.4664 86.8168 55.6401C86.4432 55.7065 86.2475 55.7756 86.2518 55.4876C86.2581 55.4434 86.2645 55.3826 86.2768 55.3051V55.3051Z" fill="#F8AE9D" />
      <path id="Vector_49" d="M87.223 54.1895C87.6009 53.4808 88.1877 52.9413 88.8291 52.4635C89.2792 52.127 89.7565 51.824 90.2118 51.5151C90.3411 51.4285 90.595 51.1941 90.8137 51.0811C91.269 51.4923 91.7352 51.9259 92.1566 52.3754C90.7643 53.2184 89.5238 54.3186 87.9963 54.9158C87.8564 54.969 87.7109 55.0222 87.5607 55.0255C87.4105 55.0288 87.2501 54.9654 87.163 54.8422C87.027 54.6518 87.1143 54.3928 87.223 54.1895V54.1895Z" fill="#F8AE9D" />
    </g>
    <g id="Details" style="--order: 6">
      <path id="Vector_50" d="M75.1307 38.177C74.379 38.6924 73.231 38.3317 73.231 38.3317C73.231 38.3317 73.3023 37.1359 74.0545 36.6211C74.806 36.1058 75.9536 36.4659 75.9536 36.4659C75.9536 36.4659 75.8822 37.6618 75.1307 38.177Z" fill="url(#paint0_linear_2_2)" />
      <path id="Vector_51" d="M106.385 58.9549C107.237 58.3739 107.322 57.0197 107.322 57.0197C107.322 57.0197 106.024 56.6086 105.172 57.1905C104.32 57.7717 104.236 59.1251 104.236 59.1251C104.236 59.1251 105.533 59.5361 106.385 58.9549V58.9549Z" fill="url(#paint1_linear_2_2)" />
      <path id="Vector_52" d="M11.0329 42.0663C12.3978 43.4497 14.9501 43.158 14.9501 43.158C14.9501 43.158 15.2878 40.6235 13.9217 39.241C12.5569 37.8577 10.0058 38.1486 10.0058 38.1486C10.0058 38.1486 9.66809 40.683 11.0329 42.0663V42.0663Z" fill="url(#paint2_linear_2_2)" />
      <path id="Vector_53" d="M25.1697 32.7914C23.9856 32.7914 23.0257 31.8356 23.0257 30.6565C23.0257 29.4774 23.9856 28.5215 25.1697 28.5215C26.3538 28.5215 27.3137 29.4774 27.3137 30.6565C27.3137 31.8356 26.3538 32.7914 25.1697 32.7914Z" fill="#006BA4" />
      <path id="Vector_54" d="M16.8343 63.0852C16.1942 63.0852 15.6753 62.5685 15.6753 61.9311C15.6753 61.2938 16.1942 60.7771 16.8343 60.7771C17.4743 60.7771 17.9932 61.2938 17.9932 61.9311C17.9932 62.5685 17.4743 63.0852 16.8343 63.0852Z" fill="white" />
      <path id="Vector_55" d="M41.6948 35.7637C41.1814 35.7637 40.7653 35.3493 40.7653 34.8381C40.7653 34.3269 41.1814 33.9125 41.6948 33.9125C42.2082 33.9125 42.6243 34.3269 42.6243 34.8381C42.6243 35.3493 42.2082 35.7637 41.6948 35.7637Z" fill="#E1E4E5" />
      <path id="Vector_56" d="M90.349 10.5333C90.0204 10.5333 89.754 10.2681 89.754 9.94083C89.754 9.6136 90.0204 9.34833 90.349 9.34833C90.6776 9.34833 90.944 9.6136 90.944 9.94083C90.944 10.2681 90.6776 10.5333 90.349 10.5333Z" fill="#E1E4E5" />
      <path id="Vector_57" d="M15.3881 57.4789C15.5208 57.9719 15.227 58.4787 14.7319 58.6108C14.2368 58.7429 13.7279 58.4503 13.5952 57.9573C13.4626 57.4643 13.7564 56.9575 14.2515 56.8254C14.7465 56.6933 15.2554 56.9859 15.3881 57.4789Z" fill="white" />
      <path id="Vector_58" d="M57.2279 19.7629C56.5461 19.7629 55.9934 19.2125 55.9934 18.5335C55.9934 17.8546 56.5461 17.3042 57.2279 17.3042C57.9097 17.3042 58.4625 17.8546 58.4625 18.5335C58.4625 19.2125 57.9097 19.7629 57.2279 19.7629Z" fill="#E1E4E5" />
      <path id="Vector_59" d="M44.1807 63.4429C43.6562 63.4429 43.231 63.1042 43.231 62.6864C43.231 62.2685 43.6562 61.9298 44.1807 61.9298C44.7053 61.9298 45.1305 62.2685 45.1305 62.6864C45.1305 63.1042 44.7053 63.4429 44.1807 63.4429Z" fill="white" />
      <path id="Vector_60" d="M107.762 67.3882C106.994 67.7609 106.133 67.5741 105.837 66.971C105.542 66.3678 105.924 65.5767 106.691 65.2039C107.459 64.8312 108.32 65.0179 108.616 65.6211C108.911 66.2243 108.529 67.0154 107.762 67.3882Z" fill="white" />
      <path id="Vector_61" d="M82.0853 20.3425C82.0853 20.8879 81.6413 21.33 81.0936 21.33C80.5459 21.33 80.1019 20.8879 80.1019 20.3425C80.1019 19.7971 80.5459 19.355 81.0936 19.355C81.6413 19.355 82.0853 19.7971 82.0853 20.3425Z" fill="#E1E4E5" />
      <path id="Vector_62" d="M107.435 29.7243H107.46C107.607 31.8 109.157 31.8319 109.157 31.8319C109.157 31.8319 107.448 31.8652 107.448 34.2636C107.448 31.8652 105.738 31.8319 105.738 31.8319C105.738 31.8319 107.288 31.8 107.435 29.7243V29.7243ZM72.6281 15.7155H72.653C72.8001 17.7912 74.3503 17.8232 74.3503 17.8232C74.3503 17.8232 72.6409 17.8565 72.6409 20.2549C72.6409 17.8565 70.9314 17.8232 70.9314 17.8232C70.9314 17.8232 72.4811 17.7912 72.6281 15.7155V15.7155ZM46.1949 12.2495H46.2127C46.3189 13.7684 47.4369 13.7917 47.4369 13.7917C47.4369 13.7917 46.204 13.8161 46.204 15.571C46.204 13.8161 44.9713 13.7917 44.9713 13.7917C44.9713 13.7917 46.0887 13.7684 46.1949 12.2495ZM14.4458 24.2267H14.4637C14.5698 25.7456 15.6876 25.769 15.6876 25.769C15.6876 25.769 14.4549 25.7932 14.4549 27.5484C14.4549 25.7932 13.2222 25.769 13.2222 25.769C13.2222 25.769 14.3396 25.7456 14.4458 24.2267Z" fill="#E1E4E5" />
    </g>
  </g>
  <defs>
    <linearGradient id="paint0_linear_2_2" x1="72.2029" y1="39.8677" x2="78.0937" y2="33.6325" gradientUnits="userSpaceOnUse">
      <stop stop-color="white" />
      <stop offset="1" stop-color="#EEEEEE" />
    </linearGradient>
    <linearGradient id="paint1_linear_2_2" x1="109.369" y1="56.5627" x2="100.387" y2="60.2886" gradientUnits="userSpaceOnUse">
      <stop stop-color="white" />
      <stop offset="1" stop-color="#EEEEEE" />
    </linearGradient>
    <linearGradient id="paint2_linear_2_2" x1="16.4786" y1="46.7914" x2="6.67018" y2="31.3512" gradientUnits="userSpaceOnUse">
      <stop stop-color="white" />
      <stop offset="1" stop-color="#EEEEEE" />
    </linearGradient>
  </defs>
</svg>