<svg width="271.52280512730806" height="64.49704369128871" viewBox="0 0 271.52280512730806 64.49704369128871" class="css-1j8o68f">
  <defs id="SvgjsDefs1177"></defs>
  <g id="SvgjsG1178" featurekey="G09qjj-0" transform="matrix(1.0521542010002964,0,0,1.0521542010002964,-10.837196498285047,-19.149207260935345)" fill="#ffffff">
    <g xmlns="http://www.w3.org/2000/svg">
      <path fill="#ffffff" d="M83.4,44.9c-1.8,0-3.4,0.7-4.6,1.9L63.4,33.3c0.5-1,0.8-2.1,0.8-3.2c0-3.7-3-6.7-6.7-6.7   c-3.7,0-6.7,3-6.7,6.7c0,2.7,1.6,5.1,4,6.1l-9.6,25.5c-0.9-0.5-2-0.8-3.1-0.8c-2.1,0-4,1-5.3,2.6l-14.1-8.3c0.6-1,1-2.2,1-3.5   c0-3.7-3-6.7-6.7-6.7c-3.7,0-6.7,3-6.7,6.7c0,3.7,3,6.7,6.7,6.7c2,0,3.8-0.9,5-2.2L36,64.5c-0.5,0.9-0.8,2-0.8,3.2   c0,3.7,3,6.7,6.7,6.7c3.7,0,6.7-3,6.7-6.7c0-2.2-1-4.1-2.6-5.3l9.7-25.8c0.5,0.1,1.1,0.2,1.7,0.2c2.1,0,4-1,5.2-2.5l15.2,13.3   c-0.8,1.1-1.3,2.5-1.3,4c0,3.7,3,6.7,6.7,6.7c3.7,0,6.7-3,6.7-6.7C90.1,47.9,87.1,44.9,83.4,44.9z M16.8,54.8   c-1.8,0-3.2-1.4-3.2-3.2c0-1.8,1.4-3.2,3.2-3.2s3.2,1.4,3.2,3.2C20,53.4,18.6,54.8,16.8,54.8z M42,70.9c-1.8,0-3.2-1.4-3.2-3.2   c0-1.8,1.4-3.2,3.2-3.2c1.8,0,3.2,1.4,3.2,3.2C45.2,69.5,43.7,70.9,42,70.9z M57.5,33.3c-1.8,0-3.2-1.4-3.2-3.2   c0-1.8,1.4-3.2,3.2-3.2c1.8,0,3.2,1.4,3.2,3.2C60.7,31.9,59.3,33.3,57.5,33.3z M83.4,54.8c-1.8,0-3.2-1.4-3.2-3.2   c0-1.8,1.4-3.2,3.2-3.2s3.2,1.4,3.2,3.2C86.6,53.4,85.1,54.8,83.4,54.8z"></path>
      <path fill="#ffffff" d="M22.8,46.4C24,32.6,35.6,21.8,49.7,21.8c1.7,0,3.3,0.2,4.9,0.5c0.8-0.2,1.6-0.4,2.5-0.4   c3,0,5.7,1.7,7.1,4.1c5.9,3.8,10.3,9.8,11.9,16.8l2.3,2c0.5-0.3,1-0.6,1.6-0.8c-2.3-14.6-15-25.8-30.2-25.8   c-15.2,0-27.9,11.2-30.2,25.8C20.8,44.5,21.9,45.4,22.8,46.4z"></path>
      <path fill="#ffffff" d="M75.9,55.6c-3,11.6-13.6,20.3-26.2,20.3c-1.9,0-3.7-0.2-5.4-0.5c-0.8,0.3-1.8,0.5-2.7,0.5   c-3.3,0-6.2-2-7.5-4.9c-3.9-2.8-7.1-6.6-9.1-11.1l-3.4-2c-0.3,0.3-0.6,0.5-1,0.7c4.1,12.1,15.5,20.9,29,20.9c13.5,0,25-8.8,29-20.9   C77.6,57.8,76.6,56.8,75.9,55.6z"></path>
    </g>
  </g>
  <g id="SvgjsG1179" featurekey="0yvIkK-0" transform="matrix(2.050964795560765,0,0,2.050964795560765,101.25170588301995,1.9912915629491739)" fill="#ffffff">
    <path d="M2.42 15.379999999999999 q0 1.58 1.12 2.66 t2.74 1.12 q1.62 0 2.63 -1.07 t1.03 -2.71 q0 -1.6 -1 -2.68 t-2.68 -1.1 q-1.62 0 -2.72 1.1 t-1.12 2.68 z M6.28 10.52 q2.12 0 3.48 1.37 t1.38 3.49 q0 2.12 -1.36 3.48 t-3.5 1.38 q-1.18 0 -2.19 -0.5 t-1.51 -1.36 l-0.04 0 l0 6.18 l-1.2 0 l0 -13.8 l1.2 0 l0 1.62 l0.04 0 q0.48 -0.84 1.5 -1.35 t2.2 -0.51 z M14.020000000000001 4.880000000000001 l1.2 0 l0 15.12 l-1.2 0 l0 -15.12 z M19.4 17.44 q0 0.76 0.61 1.24 t1.51 0.48 q1.62 0 2.41 -0.85 t0.79 -2.31 l0 -0.64 l-1.44 0 q-1.84 0 -2.86 0.56 t-1.02 1.52 z M22.119999999999997 10.52 q1.86 0 2.76 0.86 t0.92 2.4 l0 2.74 q0 2.24 0.18 3.48 l-1.12 0 q-0.12 -0.62 -0.12 -1.5 l-0.04 0 q-1 1.74 -3.22 1.74 q-1.5 0 -2.38 -0.74 t-0.9 -2 q0 -1.54 1.33 -2.32 t3.71 -0.78 l1.48 0 l0 -0.54 q0 -1.14 -0.7 -1.7 t-1.9 -0.56 q-1.6 0 -2.82 1.04 l-0.7 -0.82 q0.66 -0.64 1.63 -0.97 t1.89 -0.33 z M33.4 10.52 q1.8 0 2.65 0.97 t0.87 3.05 l0 5.46 l-1.2 0 l0 -5.4 q0 -1.54 -0.57 -2.27 t-1.75 -0.73 q-1.46 0 -2.32 1.01 t-0.88 2.81 l0 4.58 l-1.2 0 l0 -6.74 q-0.02 -0.58 -0.1 -2.5 l1.2 0 q0.04 1.58 0.08 1.62 l0.06 0 q0.4 -0.84 1.27 -1.35 t1.89 -0.51 z M44.31999999999999 14.719999999999999 l0 1.08 l-4.94 0 l0 -1.08 l4.94 0 z M46.83999999999999 10.76 l3.08 7.94 l3 -7.94 l1.22 0 l-3.64 9.24 l-1.24 0 l-3.78 -9.24 l1.36 0 z M56.71999999999999 15.379999999999999 q0 1.66 1.04 2.72 t2.62 1.06 q1.64 0 2.65 -1.08 t1.01 -2.7 q0 -1.6 -1 -2.68 t-2.68 -1.1 q-1.62 0 -2.62 1.08 t-1.02 2.7 z M60.37999999999999 10.52 q2.12 0 3.48 1.38 t1.38 3.48 q0 2.14 -1.39 3.49 t-3.47 1.37 q-2.18 -0.02 -3.51 -1.4 t-1.35 -3.46 q0 -2.14 1.37 -3.49 t3.49 -1.37 z M68.6 8.1 l1.2 0 l0 2.66 l2.64 0 l0 1.08 l-2.64 0 l0 6.04 q0 0.58 0.34 0.93 t0.94 0.35 q0.66 0 1.36 -0.32 l0.1 1.08 q-0.9 0.32 -1.58 0.32 q-1.18 0 -1.77 -0.66 t-0.59 -1.7 l0 -6.04 l-2 0 l0 -1.08 l2 0 l0 -2.66 z M81.82 14.6 q0 -1.26 -0.94 -2.13 t-2.28 -0.87 q-1.3 0 -2.24 0.87 t-1.1 2.13 l6.56 0 z M78.67999999999999 10.52 q1.92 0 3.12 1.24 t1.22 3.2 l0 0.72 l-7.76 0 q0.08 1.56 1.03 2.51 t2.47 0.97 q0.94 0 1.79 -0.45 t1.31 -1.19 l0.88 0.74 q-1.3 1.98 -4 1.98 q-2.12 -0.02 -3.39 -1.38 t-1.29 -3.5 q0 -2.08 1.31 -3.45 t3.31 -1.39 z"></path>
  </g>
</svg>