<svg width="643" height="444" viewBox="0 0 643 444" fill="none" xmlns="http://www.w3.org/2000/svg">
<rect x="0.5" y="0.5" width="642" height="443" stroke="black"/>
<path d="M445.633 136.945C438.895 136.945 432.906 139.566 428.414 144.058L370.768 93.5234C372.64 89.7802 373.762 85.6626 373.762 81.545C373.762 67.6949 362.533 56.465 348.683 56.465C334.832 56.465 323.603 67.6949 323.603 81.545C323.603 91.6518 329.592 100.636 338.576 104.379L302.64 199.832C299.271 197.961 295.154 196.838 291.036 196.838C283.175 196.838 276.063 200.581 271.197 206.57L218.417 175.501C220.663 171.758 222.16 167.266 222.16 162.4C222.16 148.55 210.93 137.32 197.08 137.32C183.23 137.32 172 148.55 172 162.4C172 176.25 183.23 187.48 197.08 187.48C204.566 187.48 211.304 184.111 215.796 179.244L268.202 210.314C266.331 213.683 265.208 217.8 265.208 222.292C265.208 236.142 276.437 247.372 290.287 247.372C304.138 247.372 315.367 236.142 315.367 222.292C315.367 214.057 311.624 206.945 305.635 202.453L341.945 105.876C343.816 106.251 346.062 106.625 348.308 106.625C356.169 106.625 363.281 102.882 367.773 97.2667L424.671 147.052C421.676 151.17 419.805 156.41 419.805 162.025C419.805 175.875 431.035 187.105 444.885 187.105C458.735 187.105 469.965 175.875 469.965 162.025C470.713 148.175 459.483 136.945 445.633 136.945ZM196.331 174.004C189.593 174.004 184.353 168.763 184.353 162.025C184.353 155.287 189.593 150.047 196.331 150.047C203.069 150.047 208.31 155.287 208.31 162.025C208.31 168.763 203.069 174.004 196.331 174.004ZM290.662 234.271C283.924 234.271 278.683 229.03 278.683 222.292C278.683 215.554 283.924 210.314 290.662 210.314C297.4 210.314 302.64 215.554 302.64 222.292C302.64 229.03 297.025 234.271 290.662 234.271ZM348.683 93.5234C341.945 93.5234 336.704 88.2829 336.704 81.545C336.704 74.8071 341.945 69.5665 348.683 69.5665C355.42 69.5665 360.661 74.8071 360.661 81.545C360.661 88.2829 355.42 93.5234 348.683 93.5234ZM445.633 174.004C438.895 174.004 433.655 168.763 433.655 162.025C433.655 155.287 438.895 150.047 445.633 150.047C452.371 150.047 457.612 155.287 457.612 162.025C457.612 168.763 451.997 174.004 445.633 174.004Z" fill="white"/>
<path d="M218.791 142.56C223.283 90.9032 266.705 50.4758 319.485 50.4758C325.849 50.4758 331.838 51.2244 337.827 52.3474C340.822 51.5988 343.816 50.8501 347.185 50.8501C358.415 50.8501 368.522 57.2137 373.762 66.1975C395.848 80.422 412.318 102.882 418.307 129.085L426.917 136.571C428.789 135.448 430.66 134.325 432.906 133.576C424.297 78.9247 376.757 37 319.859 37C262.962 37 215.422 78.9247 206.812 133.576C211.304 135.448 215.422 138.817 218.791 142.56Z" fill="white"/>
<path d="M417.559 176.998C406.329 220.42 366.65 252.987 319.485 252.987C312.373 252.987 305.635 252.238 299.271 251.115C296.277 252.238 292.533 252.987 289.164 252.987C276.812 252.987 265.956 245.5 261.09 234.645C246.491 224.164 234.513 209.939 227.026 193.095L214.299 185.608C213.176 186.731 212.053 187.48 210.556 188.228C225.903 233.522 268.576 266.463 319.111 266.463C369.645 266.463 412.693 233.522 427.666 188.228C423.922 185.234 420.179 181.49 417.559 176.998Z" fill="white"/>
<path d="M22.1185 345.272C22.1185 353.19 24.9249 359.855 30.5377 365.267C36.1505 370.68 43.0162 373.486 51.1347 373.687C59.2532 373.687 65.8432 371.006 70.9047 365.643C75.9663 360.281 78.5472 353.491 78.6474 345.272C78.6474 337.254 76.1417 330.538 71.1303 325.126C66.1188 319.714 59.4035 316.957 50.9843 316.857C42.8658 316.857 36.0503 319.613 30.5377 325.126C25.0251 330.638 22.2187 337.354 22.1185 345.272V345.272ZM51.1347 308.739C61.7589 308.739 70.4788 312.171 77.2943 319.037C84.1099 325.903 87.5677 334.648 87.668 345.272C87.668 355.896 84.2602 364.616 77.4447 371.432C70.6291 378.247 61.8591 381.705 51.1347 381.805C45.2212 381.805 39.7337 380.552 34.6721 378.047C29.6106 375.541 25.827 372.133 23.3213 367.823H23.0206V414.279H14V310.543H23.0206V322.72H23.3213C25.7267 318.511 29.4853 315.128 34.597 312.572C39.7086 310.016 45.2212 308.739 51.1347 308.739V308.739ZM109.317 266.342H118.338V380.001H109.317V266.342ZM149.76 360.757C149.76 364.566 151.288 367.673 154.345 370.078C157.402 372.484 161.186 373.687 165.696 373.687C173.814 373.687 179.853 371.557 183.812 367.297C187.771 363.037 189.751 357.249 189.751 349.932V345.122H178.926C169.705 345.122 162.539 346.525 157.427 349.331C152.315 352.138 149.76 355.946 149.76 360.757V360.757ZM170.206 308.739C179.527 308.739 186.443 310.893 190.953 315.203C195.464 319.513 197.769 325.527 197.869 333.244V353.841C197.869 365.067 198.32 373.787 199.222 380.001H190.803C190.202 376.894 189.901 373.135 189.901 368.725H189.6C184.589 377.445 176.521 381.805 165.395 381.805C157.878 381.805 151.914 379.951 147.504 376.242C143.094 372.534 140.839 367.523 140.739 361.208C140.739 353.491 144.072 347.677 150.737 343.768C157.402 339.86 166.698 337.905 178.625 337.905H189.751V333.846C189.751 328.133 187.997 323.873 184.489 321.067C180.981 318.26 176.22 316.857 170.206 316.857C162.188 316.857 155.122 319.463 149.008 324.675L143.746 318.511C147.053 315.304 151.138 312.873 155.999 311.219C160.86 309.565 165.596 308.739 170.206 308.739V308.739ZM255 308.739C264.02 308.739 270.66 311.169 274.92 316.03C279.18 320.891 281.36 328.534 281.46 338.957V380.001H272.439V339.408C272.439 331.691 271.011 326.003 268.155 322.345C265.298 318.686 260.913 316.857 255 316.857C247.683 316.857 241.87 319.388 237.56 324.449C233.25 329.511 231.045 336.552 230.945 345.573V380.001H221.924V329.336C221.824 326.429 221.573 320.165 221.172 310.543H230.193C230.393 318.461 230.594 322.52 230.794 322.72H231.245C233.25 318.511 236.432 315.128 240.792 312.572C245.152 310.016 249.888 308.739 255 308.739V308.739ZM337.087 340.311V348.429H299.952V340.311H337.087ZM356.03 310.543L379.183 370.229L401.734 310.543H410.905L383.543 380.001H374.221L345.807 310.543H356.03V310.543ZM430.299 345.272C430.299 353.591 432.905 360.406 438.117 365.718C443.329 371.031 449.894 373.687 457.812 373.687C466.031 373.687 472.671 370.98 477.732 365.568C482.794 360.156 485.325 353.39 485.325 345.272C485.325 337.254 482.819 330.538 477.808 325.126C472.796 319.714 466.081 316.957 457.662 316.857C449.543 316.857 442.978 319.563 437.967 324.976C432.955 330.388 430.399 337.153 430.299 345.272ZM457.812 308.739C468.436 308.739 477.156 312.196 483.972 319.112C490.787 326.028 494.245 334.748 494.345 345.272C494.345 355.996 490.862 364.741 483.896 371.507C476.931 378.272 468.236 381.705 457.812 381.805C446.887 381.705 438.092 378.197 431.427 371.281C424.762 364.365 421.379 355.696 421.279 345.272C421.279 334.547 424.711 325.802 431.577 319.037C438.443 312.272 447.188 308.839 457.812 308.739V308.739ZM519.603 290.547H528.623V310.543H548.469V318.661H528.623V364.065C528.623 366.971 529.475 369.302 531.179 371.056C532.883 372.81 535.239 373.687 538.245 373.687C541.553 373.687 544.961 372.885 548.469 371.281L549.22 379.4C544.71 381.003 540.751 381.805 537.343 381.805C531.43 381.805 526.995 380.151 524.038 376.844C521.081 373.536 519.603 369.277 519.603 364.065V318.661H504.569V310.543H519.603V290.547V290.547ZM618.979 339.408C618.979 333.094 616.624 327.757 611.913 323.397C607.203 319.037 601.49 316.857 594.774 316.857C588.259 316.857 582.647 319.037 577.936 323.397C573.225 327.757 570.469 333.094 569.667 339.408H618.979V339.408ZM595.376 308.739C604.998 308.739 612.815 311.846 618.829 318.06C624.843 324.274 627.9 332.292 628 342.115V347.527H569.667C570.068 355.345 572.649 361.634 577.41 366.395C582.171 371.156 588.36 373.586 595.977 373.687C600.688 373.687 605.173 372.559 609.433 370.304C613.692 368.049 616.975 365.067 619.28 361.359L625.895 366.921C619.38 376.844 609.357 381.805 595.827 381.805C585.202 381.705 576.708 378.247 570.344 371.432C563.979 364.616 560.747 355.846 560.646 345.122C560.646 334.698 563.929 326.053 570.494 319.187C577.059 312.322 585.353 308.839 595.376 308.739Z" fill="white"/>
</svg>
