<svg width="39" height="59" viewBox="0 0 39 59" fill="none" xmlns="http://www.w3.org/2000/svg">
<path d="M7.84674 12.5H31.4168C34.6276 12.5 37.1557 15.2387 36.8993 18.4392L34.1757 52.4392C33.9467 55.2973 31.5605 57.5 28.6932 57.5H11.7376C8.94196 57.5 6.5911 55.4028 6.27325 52.6253L2.38241 18.6253C2.00889 15.3613 4.56146 12.5 7.84674 12.5Z" fill="white" stroke="#852424" stroke-width="3"/>
<rect x="1" y="5" width="36" height="4" rx="2" fill="white" stroke="#852424" stroke-width="2"/>
<rect x="13" y="1" width="12" height="3" rx="1" fill="white" stroke="#852424" stroke-width="2"/>
<rect x="7" y="19.3203" width="3" height="34" rx="1.5" transform="rotate(-6.12911 7 19.3203)" fill="#852424"/>
<rect x="27.9862" y="53.131" width="3" height="34" rx="1.5" transform="rotate(-174.503 27.9862 53.131)" fill="#852424"/>
<rect x="18" y="19" width="3" height="34" rx="1.5" fill="#852424"/>
</svg>
